<?xml version="1.0" encoding="UTF-8"?>
<svg width="40px" height="40px" viewBox="0 0 40 40" version="1.1" xmlns="http://www.w3.org/2000/svg" xmlns:xlink="http://www.w3.org/1999/xlink">
    <title>Icons/Status/Lite/LostLite</title>
    <g id="Icons/Status/Lite/LostLite" stroke="none" stroke-width="1" fill="none" fill-rule="evenodd">
        <circle id="Oval" fill="#CA1010" cx="20" cy="20" r="20"></circle>
        <path d="M24.5466027,14.2493635 C24.8790875,13.9168788 25.4181517,13.9168788 25.7506365,14.2493635 C26.0831212,14.5818483 26.0831212,15.1209125 25.7506365,15.4533973 L25.7506365,15.4533973 L21.204,20 L25.7506365,24.5466027 C26.0554141,24.8513804 26.0808123,25.3297423 25.8268309,25.6634506 L25.7506365,25.7506365 C25.4181517,26.0831212 24.8790875,26.0831212 24.5466027,25.7506365 L24.5466027,25.7506365 L20,21.204 L15.4533973,25.7506365 C15.1486196,26.0554141 14.6702577,26.0808123 14.3365494,25.8268309 L14.2493635,25.7506365 C13.9168788,25.4181517 13.9168788,24.8790875 14.2493635,24.5466027 L14.2493635,24.5466027 L18.796,20 L14.2493635,15.4533973 C13.9445859,15.1486196 13.9191877,14.6702577 14.1731691,14.3365494 L14.2493635,14.2493635 C14.5818483,13.9168788 15.1209125,13.9168788 15.4533973,14.2493635 L15.4533973,14.2493635 L20,18.796 Z" id="Shape" fill="#FFFFFF" fill-rule="nonzero"></path>
    </g>
</svg>