<?xml version="1.0" encoding="UTF-8"?>
<svg width="18px" height="18px" viewBox="0 0 18 18" version="1.1" xmlns="http://www.w3.org/2000/svg" xmlns:xlink="http://www.w3.org/1999/xlink">
    <title>Icons/Status/Lost</title>
    <g id="Icons/Status/Lost" stroke="none" stroke-width="1" fill="none" fill-rule="evenodd">
        <path d="M13.5466027,2.24936355 C13.8790875,1.91687882 14.4181517,1.91687882 14.7506365,2.24936355 C15.0831212,2.58184828 15.0831212,3.12091253 14.7506365,3.45339726 L14.7506365,3.45339726 L10.204,8 L14.7506365,12.5466027 C15.0554141,12.8513804 15.0808123,13.3297423 14.8268309,13.6634506 L14.7506365,13.7506365 C14.4181517,14.0831212 13.8790875,14.0831212 13.5466027,13.7506365 L13.5466027,13.7506365 L9,9.204 L4.45339726,13.7506365 C4.14861959,14.0554141 3.67025774,14.0808123 3.33654937,13.8268309 L3.24936355,13.7506365 C2.91687882,13.4181517 2.91687882,12.8790875 3.24936355,12.5466027 L3.24936355,12.5466027 L7.796,8 L3.24936355,3.45339726 C2.94458588,3.14861959 2.91918774,2.67025774 3.17316913,2.33654937 L3.24936355,2.24936355 C3.58184828,1.91687882 4.12091253,1.91687882 4.45339726,2.24936355 L4.45339726,2.24936355 L9,6.796 Z" id="Shape" fill="#CA1010" fill-rule="nonzero"></path>
    </g>
</svg>