<?xml version="1.0" encoding="UTF-8"?>
<svg width="40px" height="40px" viewBox="0 0 40 40" version="1.1" xmlns="http://www.w3.org/2000/svg" xmlns:xlink="http://www.w3.org/1999/xlink">
    <title>Icons/Status/Lite/PendingLite</title>
    <g id="Icons/Status/Lite/PendingLite" stroke="none" stroke-width="1" fill="none" fill-rule="evenodd">
        <circle id="Oval" fill="#818181" cx="20" cy="20" r="20"></circle>
        <path d="M20.304124,11 C25.1067237,11 29,14.8932763 29,19.695876 C29,24.4984757 25.1067237,28.391752 20.304124,28.391752 C19.9346933,28.391752 19.6352105,28.0922692 19.6352105,27.7228385 C19.6352105,27.3534077 19.9346933,27.0539249 20.304124,27.0539249 C24.3678622,27.0539249 27.6621729,23.7596142 27.6621729,19.695876 C27.6621729,15.6321378 24.3678622,12.3378271 20.304124,12.3378271 C16.2403858,12.3378271 12.9460751,15.6321378 12.9460751,19.695876 C12.9460751,21.5208385 13.6138727,23.2358321 14.7832419,24.5608074 L14.7839464,22.2092245 C14.7839464,21.8397938 15.0834292,21.540311 15.4528599,21.540311 C15.8222907,21.540311 16.1217735,21.8397938 16.1217735,22.2092245 L16.1217735,22.2092245 L16.1217735,25.9931709 C16.1217735,26.3626017 15.8222907,26.6620844 15.4528599,26.6620844 L15.4528599,26.6620844 L11.6689135,26.6620844 C11.2994828,26.6620844 11,26.3626017 11,25.9931709 C11,25.6237402 11.2994828,25.3242574 11.6689135,25.3242574 L11.6689135,25.3242574 L13.6751024,25.3247521 C12.3583672,23.7762722 11.608248,21.7968184 11.608248,19.695876 C11.608248,14.8932763 15.5015243,11 20.304124,11 Z M20.304124,15.2816871 C20.6735547,15.2816871 20.9730375,15.5811699 20.9730375,15.9506007 L20.9730375,15.9506007 L20.9730375,20.3106877 L23.1454466,22.4830968 C23.4066736,22.7443237 23.4066736,23.1678564 23.1454466,23.4290834 C22.8842197,23.6903103 22.460687,23.6903103 22.19946,23.4290834 L22.19946,23.4290834 L19.8311307,21.060754 C19.7056851,20.9353084 19.6352105,20.7651676 19.6352105,20.5877607 L19.6352105,20.5877607 L19.6352105,15.9506007 C19.6352105,15.5811699 19.9346933,15.2816871 20.304124,15.2816871 Z" id="Shape" fill="#FFFFFF" fill-rule="nonzero"></path>
    </g>
</svg>