<?xml version="1.0" encoding="UTF-8"?>
<svg width="18px" height="18px" viewBox="0 0 18 18" version="1.1" xmlns="http://www.w3.org/2000/svg" xmlns:xlink="http://www.w3.org/1999/xlink">
    <title>Icons/Status/Pending</title>
    <g id="Icons/Status/Pending" stroke="none" stroke-width="1" fill="none" fill-rule="evenodd">
        <path d="M9.304124,-1.0658141e-14 C14.1067237,-1.0658141e-14 18,3.8932763 18,8.695876 C18,13.4984757 14.1067237,17.391752 9.304124,17.391752 C8.93469325,17.391752 8.63521046,17.0922692 8.63521046,16.7228385 C8.63521046,16.3534077 8.93469325,16.0539249 9.304124,16.0539249 C13.3678622,16.0539249 16.6621729,12.7596142 16.6621729,8.695876 C16.6621729,4.63213779 13.3678622,1.33782708 9.304124,1.33782708 C5.24038579,1.33782708 1.94607508,4.63213779 1.94607508,8.695876 C1.94607508,10.5208385 2.61387268,12.2358321 3.7832419,13.5608074 L3.78394639,11.2092245 C3.78394639,10.8397938 4.08342918,10.540311 4.45285993,10.540311 C4.82229068,10.540311 5.12177347,10.8397938 5.12177347,11.2092245 L5.12177347,11.2092245 L5.12177347,14.9931709 C5.12177347,15.3626017 4.82229068,15.6620844 4.45285993,15.6620844 L4.45285993,15.6620844 L0.668913538,15.6620844 C0.299482792,15.6620844 3.39284156e-13,15.3626017 2.71782596e-13,14.9931709 C2.04281037e-13,14.6237402 0.299482792,14.3242574 0.668913538,14.3242574 L0.668913538,14.3242574 L2.67510236,14.3247521 C1.35836725,12.7762722 0.608248,10.7968184 0.608248,8.695876 C0.608248,3.8932763 4.5015243,-1.0658141e-14 9.304124,-1.0658141e-14 Z M9.304124,4.28168713 C9.67355475,4.28168713 9.97303754,4.58116993 9.97303754,4.95060067 L9.97303754,4.95060067 L9.97303754,9.31068766 L12.1454466,11.4830968 C12.4066736,11.7443237 12.4066736,12.1678564 12.1454466,12.4290834 C11.8842197,12.6903103 11.460687,12.6903103 11.19946,12.4290834 L11.19946,12.4290834 L8.8311307,10.060754 C8.70568508,9.93530839 8.63521046,9.76516762 8.63521046,9.58776072 L8.63521046,9.58776072 L8.63521046,4.95060067 C8.63521046,4.58116993 8.93469325,4.28168713 9.304124,4.28168713 Z" id="Shape" fill="#7C7C7C" fill-rule="nonzero"></path>
    </g>
</svg>