<?xml version="1.0" encoding="UTF-8"?>
<svg width="15px" height="18px" viewBox="0 0 15 18" version="1.1" xmlns="http://www.w3.org/2000/svg" xmlns:xlink="http://www.w3.org/1999/xlink">
    <title>Fill 1166</title>
    <g id="Symbols" stroke="none" stroke-width="1" fill="none" fill-rule="evenodd">
        <g id="Icons/Delete/Dark" transform="translate(-2.000000, -3.000000)" fill="#FFFFFF">
            <path d="M8.75,4.5 C8.336,4.5 8,4.836 8,5.25 L8,6 L11,6 L11,5.25 C11,4.836 10.664,4.5 10.25,4.5 L8.75,4.5 Z M12.5,6 L12.5,5.25 C12.5,4.00725 11.49275,3 10.25,3 L8.75,3 C7.50725,3 6.5,4.00725 6.5,5.25 L6.5,6 L2.75,6 C2.336,6 2,6.336 2,6.75 C2,7.164 2.336,7.5 2.75,7.5 L2.82875,7.5 L4.106,18.99825 C4.23275,20.13825 5.19575,21 6.3425,21 L12.6575,21 C13.80425,21 14.76725,20.13825 14.89325,18.99825 L16.17125,7.5 L16.25,7.5 C16.664,7.5 17,7.164 17,6.75 C17,6.336 16.664,6 16.25,6 L12.5,6 Z M14.66225,7.5 L4.33775,7.5 L5.597,18.8325 C5.63975,19.21275 5.96075,19.5 6.3425,19.5 L12.6575,19.5 C13.03925,19.5 13.36025,19.21275 13.403,18.8325 L14.66225,7.5 Z M8,9.75 C8.414,9.75 8.75,10.086 8.75,10.5 L8.75,16.5 C8.75,16.914 8.414,17.25 8,17.25 C7.586,17.25 7.25,16.914 7.25,16.5 L7.25,10.5 C7.25,10.086 7.586,9.75 8,9.75 Z M11,9.75 C11.414,9.75 11.75,10.086 11.75,10.5 L11.75,16.5 C11.75,16.914 11.414,17.25 11,17.25 C10.586,17.25 10.25,16.914 10.25,16.5 L10.25,10.5 C10.25,10.086 10.586,9.75 11,9.75 L11,9.75 Z" id="Fill-1166"></path>
        </g>
    </g>
</svg>