<?xml version="1.0" encoding="UTF-8"?>
<svg width="16px" height="10px" viewBox="0 0 16 10" version="1.1" xmlns="http://www.w3.org/2000/svg" xmlns:xlink="http://www.w3.org/1999/xlink">
    <title>Shape</title>
    <g id="Symbols" stroke="none" stroke-width="1" fill="none" fill-rule="evenodd">
        <g id="Navigation/GoBack/Dark" transform="translate(0.000000, -12.000000)" fill="#FFFFFF" fill-rule="nonzero">
            <g id="HeaderTitle">
                <path d="M4.3557883,12.2312315 C4.65812969,11.9229228 5.14832193,11.9229228 5.45066331,12.2312315 C5.7530047,12.5395401 5.7530047,13.0394072 5.45066331,13.3477159 L5.45066331,13.3477159 L2.643,16.21 L15.2258065,16.2105263 C15.6177505,16.2105263 15.9416681,16.5075304 15.9929325,16.8928731 L16,17 C16,17.4360143 15.6533817,17.7894737 15.2258065,17.7894737 L15.2258065,17.7894737 L2.643,17.789 L5.45066331,20.6522841 C5.72551912,20.9325647 5.75050601,21.3711581 5.52562399,21.6802228 L5.45066331,21.7687685 C5.14832193,22.0770772 4.65812969,22.0770772 4.3557883,21.7687685 L4.3557883,21.7687685 L0.22675604,17.5582422 L0.22675604,17.5582422 L0.161312951,17.4824238 C0.160108949,17.4808356 0.158910752,17.4792426 0.157718392,17.4776448 C0.148212576,17.4650185 0.13895254,17.4518011 0.13014006,17.4383689 C0.119253374,17.4216506 0.108879172,17.4044514 0.099149092,17.3868328 C0.0910882336,17.3723463 0.0835888254,17.3576764 0.0765717094,17.342829 C0.0685037289,17.3257317 0.0608541975,17.3079527 0.0538422034,17.2898459 C0.0472125832,17.2726313 0.0413145939,17.2556377 0.0360040722,17.2384958 C0.0312653038,17.2234476 0.0268040503,17.2073782 0.0228376317,17.1911094 C0.0176998984,17.1696767 0.0134742676,17.1486197 0.0100962836,17.1274494 C0.00344356481,17.0860977 0,17.0434589 0,17 L0.00516746624,17.0913364 C0.00226450128,17.0657736 0.000584651071,17.0400938 0.000127915606,17.0143956 L0,17 C0,16.9949064 4.73046579e-05,16.989824 0.000141490422,16.9847534 C0.000628115223,16.9592449 0.00230188146,16.9338973 0.00516746624,16.9086636 C0.00650508818,16.8964551 0.00815358212,16.884358 0.0100676292,16.8723519 C0.0134742676,16.8513803 0.0176998984,16.8303233 0.022773176,16.8094365 C0.0268040503,16.7926218 0.0312653038,16.7765524 0.0362041557,16.7607 C0.0413145939,16.7443623 0.0472125832,16.7273687 0.0536980403,16.7105562 C0.0608541975,16.6920473 0.0685037289,16.6742683 0.0767625818,16.6568458 C0.0835888254,16.6423236 0.0910882336,16.6276537 0.099069934,16.6131859 C0.108879172,16.5955486 0.119253374,16.5783494 0.130239124,16.5616027 C0.157903273,16.5193137 0.1901086,16.4791285 0.22675604,16.4417578 L0.157718392,16.5223552 C0.178942396,16.4939142 0.202015899,16.4669862 0.22675604,16.4417578 Z" id="Shape"></path>
            </g>
        </g>
    </g>
</svg>