<?xml version="1.0" encoding="UTF-8"?>
<svg width="18px" height="24px" viewBox="0 0 18 24" version="1.1" xmlns="http://www.w3.org/2000/svg" xmlns:xlink="http://www.w3.org/1999/xlink">
    <title>Icons/Password/Dark</title>
    <g id="Icons/Password/Dark" stroke="none" stroke-width="1" fill="none" fill-rule="evenodd">
        <g id="Icons/OrdersIcon" fill="#FFFFFF">
            <path d="M9,2 C6.791,2 5,3.791 5,6 L5,10 L13,10 L13,6 C13,3.791 11.209,2 9,2 Z M15,10 L15,6 C15,2.687 12.313,0 9,0 C5.687,0 3,2.687 3,6 L3,10 C1.343,10 0,11.343 0,13 L0,21 C0,22.657 1.343,24 3,24 L15,24 C16.657,24 18,22.657 18,21 L18,13 C18,11.343 16.657,10 15,10 Z M3,12 C2.448,12 2,12.448 2,13 L2,21 C2,21.552 2.448,22 3,22 L15,22 C15.552,22 16,21.552 16,21 L16,13 C16,12.448 15.552,12 15,12 L3,12 Z M9,15 C9.552,15 10,15.448 10,16 L10,18 C10,18.552 9.552,19 9,19 C8.448,19 8,18.552 8,18 L8,16 C8,15.448 8.448,15 9,15 L9,15 Z" id="Fill-1183"></path>
        </g>
    </g>
</svg>