<?xml version="1.0" encoding="UTF-8"?>
<svg width="24px" height="14px" viewBox="0 0 24 14" version="1.1" xmlns="http://www.w3.org/2000/svg" xmlns:xlink="http://www.w3.org/1999/xlink">
    <title>Icons/Privacy/Dark</title>
    <g id="Icons/Privacy/Dark" stroke="none" stroke-width="1" fill="none" fill-rule="evenodd">
        <g id="Icons/OrdersIcon" fill="#FFFFFF">
            <path d="M12,2 C6.67798572,2 3.4726349,5.09 2.18123352,6.671 C2.01659271,6.872 2.01659271,7.128 2.18123352,7.329 C3.4726349,8.91 6.67798572,12 12,12 C17.3220143,12 20.5283941,8.91 21.8187665,7.329 C21.9834073,7.128 21.9834073,6.872 21.8187665,6.671 C20.5283941,5.09 17.3220143,2 12,2 Z M0.568782558,5.428 C2.04128883,3.626 5.77554827,0 12,0 C18.2244517,0 21.9597402,3.626 23.4312174,5.428 C24.1895942,6.357 24.1895942,7.643 23.4312174,8.572 C21.9597402,10.374 18.2244517,14 12,14 C5.77554827,14 2.04128883,10.374 0.568782558,8.572 C-0.189594186,7.643 -0.189594186,6.357 0.568782558,5.428 Z M12,5 C10.8639784,5 9.94198984,5.896 9.94198984,7 C9.94198984,8.104 10.8639784,9 12,9 C13.1360216,9 14.0580102,8.104 14.0580102,7 C14.0580102,5.896 13.1360216,5 12,5 Z M7.88397968,7 C7.88397968,4.791 9.72692778,3 12,3 C14.2730722,3 16.1160203,4.791 16.1160203,7 C16.1160203,9.209 14.2730722,11 12,11 C9.72692778,11 7.88397968,9.209 7.88397968,7 L7.88397968,7 Z" id="Fill-1159"></path>
        </g>
    </g>
</svg>