<?xml version="1.0" encoding="UTF-8"?>
<svg width="17px" height="18px" viewBox="0 0 17 18" version="1.1" xmlns="http://www.w3.org/2000/svg" xmlns:xlink="http://www.w3.org/1999/xlink">
    <title>Settings</title>
    <g id="Symbols" stroke="none" stroke-width="1" fill="none" fill-rule="evenodd">
        <g id="Icons/Settings/Dark" fill="#FFFFFF">
            <path d="M8.30717541,1.5 C8.11967541,1.5 7.93292541,1.50675 7.74842541,1.52025 C7.52567541,1.53675 7.28942541,1.731 7.24067541,2.06775 L7.16942541,2.5575 C7.04717541,3.4005 6.46892541,4.02675 5.82617541,4.37175 C5.72942541,4.4235 5.63492541,4.479 5.54192541,4.536 C4.92092541,4.92225 4.08917541,5.10975 3.29792541,4.794 L2.83742541,4.61025 C2.52092541,4.48425 2.23517541,4.59075 2.10842541,4.776 C1.89917541,5.08275 1.71167541,5.406 1.54892541,5.74425 C1.45142541,5.94525 1.50167541,6.24525 1.76867541,6.456 L2.16092541,6.76575 C2.82842541,7.29225 3.08267541,8.1045 3.05942541,8.83425 L3.05717541,9 L3.05942541,9.16575 C3.08267541,9.8955 2.82842541,10.70775 2.16092541,11.23425 L1.76867541,11.544 C1.50167541,11.75475 1.45142541,12.05475 1.54892541,12.25575 C1.71167541,12.594 1.89917541,12.91725 2.10842541,13.224 C2.23517541,13.40925 2.52092541,13.51575 2.83742541,13.38975 L3.29792541,13.206 C4.08917541,12.89025 4.92092541,13.0785 5.54192541,13.464 C5.63492541,13.521 5.72942541,13.5765 5.82617541,13.62825 C6.46892541,13.97325 7.04717541,14.5995 7.16942541,15.4425 L7.24067541,15.93225 C7.28942541,16.269 7.52567541,16.46325 7.74842541,16.47975 C7.93292541,16.49325 8.11967541,16.5 8.30717541,16.5 C8.49467541,16.5 8.68142541,16.49325 8.86592541,16.47975 C9.08942541,16.46325 9.32492541,16.269 9.37367541,15.93225 L9.44492541,15.4425 C9.56717541,14.5995 10.1454254,13.97325 10.7881754,13.62825 C10.8849254,13.5765 10.9794254,13.521 11.0731754,13.464 C11.6934254,13.0785 12.5251754,12.89025 13.3164254,13.206 L13.7769254,13.38975 C14.0934254,13.51575 14.3791754,13.40925 14.5059254,13.224 C14.7151754,12.91725 14.9026754,12.59325 15.0654254,12.25575 C15.1629254,12.05475 15.1126754,11.75475 14.8456754,11.544 L14.4534254,11.23425 C13.7859254,10.70775 13.5316754,9.8955 13.5549254,9.16575 L13.5571754,9 L13.5549254,8.83425 C13.5316754,8.1045 13.7859254,7.29225 14.4534254,6.76575 L14.8456754,6.456 C15.1126754,6.24525 15.1629254,5.94525 15.0654254,5.74425 C14.9026754,5.40675 14.7151754,5.08275 14.5059254,4.776 C14.3791754,4.59075 14.0934254,4.48425 13.7769254,4.61025 L13.3164254,4.794 C12.5251754,5.10975 11.6934254,4.92225 11.0731754,4.536 C10.9794254,4.479 10.8849254,4.4235 10.7881754,4.37175 C10.1454254,4.02675 9.56717541,3.4005 9.44492541,2.5575 L9.37367541,2.06775 C9.32492541,1.731 9.08942541,1.53675 8.86592541,1.52025 C8.68142541,1.50675 8.49467541,1.5 8.30717541,1.5 Z M7.63892541,0.02475 C7.85942541,0.00825 8.08217541,0 8.30717541,0 C8.53217541,0 8.75492541,0.00825 8.97542541,0.02475 C10.0141754,0.1005 10.7251754,0.9375 10.8579254,1.8525 L10.9291754,2.34225 C10.9666754,2.60025 11.1601754,2.86875 11.4976754,3.05025 C11.6221754,3.117 11.7444254,3.1875 11.8636754,3.2625 C12.1891754,3.46425 12.5184254,3.49725 12.7606754,3.4005 L13.2219254,3.21675 C14.0791754,2.87475 15.1576754,3.072 15.7441754,3.93 C15.9954254,4.29825 16.2211754,4.68675 16.4169254,5.09175 C16.8691754,6.02925 16.4994254,7.06275 15.7741754,7.63425 L15.3826754,7.94325 C15.1779254,8.1045 15.0421754,8.406 15.0541754,8.78775 C15.0564254,8.85825 15.0571754,8.92875 15.0571754,9 C15.0571754,9.07125 15.0564254,9.14175 15.0541754,9.21225 C15.0421754,9.594 15.1779254,9.8955 15.3826754,10.05675 L15.7741754,10.36575 C16.4994254,10.93725 16.8691754,11.97075 16.4169254,12.90825 C16.2211754,13.31325 15.9954254,13.70175 15.7441754,14.07 C15.1576754,14.928 14.0791754,15.12525 13.2219254,14.78325 L12.7606754,14.5995 C12.5184254,14.50275 12.1891754,14.53575 11.8636754,14.7375 C11.7444254,14.8125 11.6221754,14.883 11.4976754,14.94975 C11.1601754,15.13125 10.9666754,15.39975 10.9291754,15.65775 L10.8579254,16.1475 C10.7251754,17.0625 10.0141754,17.8995 8.97542541,17.97525 C8.75492541,17.99175 8.53217541,18 8.30717541,18 C8.08217541,18 7.85942541,17.99175 7.63892541,17.97525 C6.60092541,17.8995 5.88917541,17.0625 5.75642541,16.1475 L5.68517541,15.65775 C5.64767541,15.39975 5.45417541,15.13125 5.11667541,14.94975 C4.99217541,14.883 4.86992541,14.8125 4.75067541,14.7375 C4.42517541,14.53575 4.09592541,14.50275 3.85367541,14.5995 L3.39242541,14.78325 C2.53517541,15.12525 1.45667541,14.928 0.870175412,14.07 C0.618925412,13.70175 0.393175412,13.31325 0.198175412,12.90825 C-0.254824588,11.97075 0.114925412,10.93725 0.840175412,10.36575 L1.23167541,10.05675 C1.43642541,9.8955 1.57217541,9.594 1.56017541,9.21225 C1.55792541,9.14175 1.55717541,9.07125 1.55717541,9 C1.55717541,8.92875 1.55792541,8.85825 1.56017541,8.78775 C1.57217541,8.406 1.43642541,8.1045 1.23167541,7.94325 L0.840175412,7.63425 C0.114925412,7.06275 -0.254824588,6.02925 0.198175412,5.09175 C0.393175412,4.68675 0.618925412,4.29825 0.870175412,3.93 C1.45667541,3.072 2.53517541,2.87475 3.39242541,3.21675 L3.85367541,3.4005 C4.09592541,3.49725 4.42517541,3.46425 4.75067541,3.2625 C4.86992541,3.1875 4.99217541,3.117 5.11667541,3.05025 C5.45417541,2.86875 5.64767541,2.60025 5.68517541,2.34225 L5.75642541,1.8525 C5.88917541,0.9375 6.60092541,0.1005 7.63892541,0.02475 Z M8.30717541,6.75 C7.06442541,6.75 6.05717541,7.75725 6.05717541,9 C6.05717541,10.24275 7.06442541,11.25 8.30717541,11.25 C9.54992541,11.25 10.5571754,10.24275 10.5571754,9 C10.5571754,7.75725 9.54992541,6.75 8.30717541,6.75 Z M4.55717541,9 C4.55717541,6.92925 6.23567541,5.25 8.30717541,5.25 C10.3779254,5.25 12.0571754,6.92925 12.0571754,9 C12.0571754,11.07075 10.3779254,12.75 8.30717541,12.75 C6.23567541,12.75 4.55717541,11.07075 4.55717541,9 L4.55717541,9 Z" id="Settings"></path>
        </g>
    </g>
</svg>