<?xml version="1.0" encoding="UTF-8"?>
<svg width="24px" height="24px" viewBox="0 0 24 24" version="1.1" xmlns="http://www.w3.org/2000/svg" xmlns:xlink="http://www.w3.org/1999/xlink">
    <title>Icons/Plus</title>
    <g id="Symbols" stroke="none" stroke-width="1" fill="none" fill-rule="evenodd">
        <g id="Commons/Tabs/BottomTab/Profile" transform="translate(-33.000000, -14.000000)" fill="#FFFFFF" fill-rule="nonzero">
            <g id="BottomTab">
                <g id="Content" transform="translate(33.600000, 7.200000)">
                    <g id="Icons/Plus/Unselected" transform="translate(0.000000, 7.200000)">
                        <path d="M11.7,0 C18.1617316,0 23.4,5.23826843 23.4,11.7 C23.4,18.1617316 18.1617316,23.4 11.7,23.4 C5.23826843,23.4 4.61852778e-14,18.1617316 4.61852778e-14,11.7 C4.61852778e-14,5.23826843 5.23826843,0 11.7,0 Z M11.7,1.8 C6.23238098,1.8 1.8,6.23238098 1.8,11.7 C1.8,17.167619 6.23238098,21.6 11.7,21.6 C17.167619,21.6 21.6,17.167619 21.6,11.7 C21.6,6.23238098 17.167619,1.8 11.7,1.8 Z M11.4,7.2 C11.8588212,7.2 12.2374518,7.54333667 12.2929877,7.98710591 L12.3,8.1 L12.3,10.8 L15,10.8 C15.4588212,10.8 15.8374518,11.1433367 15.8929877,11.5871059 L15.9,11.7 C15.9,12.1588212 15.5566633,12.5374518 15.1128941,12.5929877 L15,12.6 L12.299,12.6 L12.3,15.3 C12.3,15.7588212 11.9566633,16.1374518 11.5128941,16.1929877 L11.4,16.2 C10.9411788,16.2 10.5625482,15.8566633 10.5070123,15.4128941 L10.5,15.3 L10.499,12.6 L7.8,12.6 C7.34117882,12.6 6.96254822,12.2566633 6.90701228,11.8128941 L6.9,11.7 C6.9,11.2411788 7.24333667,10.8625482 7.68710591,10.8070123 L7.8,10.8 L10.5,10.8 L10.5,8.1 C10.5,7.64117882 10.8433367,7.26254822 11.2871059,7.20701228 L11.4,7.2 Z" id="PlusIcon"></path>
                    </g>
                </g>
            </g>
        </g>
    </g>
</svg>