<?xml version="1.0" encoding="UTF-8"?>
<svg width="40px" height="39px" viewBox="0 0 40 39" version="1.1" xmlns="http://www.w3.org/2000/svg" xmlns:xlink="http://www.w3.org/1999/xlink">
    <title>Icons/Profile</title>
    <g id="Symbols" stroke="none" stroke-width="1" fill="none" fill-rule="evenodd">
        <g id="Commons/Tabs/BottomTab/Profile" transform="translate(-120.000000, -7.000000)">
            <g id="BottomTab">
                <g id="Content" transform="translate(33.600000, 7.200000)">
                    <g id="Icons/Profile" transform="translate(87.600000, 0.000000)">
                        <circle id="Oval" fill="#FFFFFF" cx="18.6" cy="18.6" r="18.6"></circle>
                        <g id="Icons/Profile/Selected" transform="translate(8.000000, 8.000000)" fill="#5100FF" fill-rule="nonzero">
                            <path d="M10.8,0 C16.7646753,0 21.6,4.8353247 21.6,10.8 C21.6,16.7646753 16.7646753,21.6 10.8,21.6 C4.8353247,21.6 1.82964754e-13,16.7646753 1.82964754e-13,10.8 C1.82964754e-13,4.8353247 4.8353247,0 10.8,0 Z M10.8,6.09230769 C9.1512403,6.09230769 7.75384615,7.44283457 7.75384615,9.32330096 C7.75384615,10.4175143 8.10821633,11.1303631 8.86208296,11.8426147 C9.13308059,12.0670481 9.34395848,12.32633 9.49481006,12.6123192 C9.7965348,13.1843387 9.83093192,13.7750331 9.71405853,14.314927 C9.69013686,14.4254327 9.66382967,14.5133706 9.66373613,14.5036783 C9.40213494,15.4752288 8.72561797,15.8920794 7.24090477,16.3992159 L7.24090477,16.3992159 L6.7474671,16.5658361 C6.55570249,16.6309021 6.40597582,16.6833425 6.26280272,16.7361867 C5.55884677,16.9960118 5.05366368,17.2614161 4.68802986,17.5923488 C6.30795643,19.0517539 8.45042738,19.9384615 10.8,19.9384615 C13.1495726,19.9384615 15.2920436,19.0517539 16.9110322,17.5947193 C16.5487032,17.2725833 16.0463539,17.0166203 15.3339402,16.7601953 C15.2099548,16.7155682 15.0801767,16.6707779 14.915562,16.6154017 L14.915562,16.6154017 L14.4885675,16.4724457 C12.9429157,15.9509759 12.2471242,15.5294369 11.9477157,14.5424292 C11.9288042,14.4837283 11.9069623,14.4001163 11.8869991,14.2947873 C11.7938787,13.8034683 11.8149201,13.2710255 12.0396669,12.746968 C12.1858607,12.4060777 12.4105418,12.1001827 12.6916443,11.8660108 C13.4833974,11.1506794 13.8461538,10.418566 13.8461538,9.32330096 C13.8461538,7.47542274 12.428037,6.09230769 10.8,6.09230769 Z M10.8,1.66153846 C5.75296706,1.66153846 1.66153846,5.75296706 1.66153846,10.8 C1.66153846,12.8975093 2.36819843,14.8299693 3.556429,16.3722907 C4.09835676,15.8736585 4.79108755,15.5082848 5.68747798,15.1774335 C5.84657328,15.1187125 6.00912357,15.0617808 6.21359891,14.992402 L6.21359891,14.992402 L6.70383586,14.8268715 C7.66077312,14.5000084 8.00034651,14.290773 8.08233401,13.999549 C8.07952617,14.0071424 8.08363736,13.9933998 8.09013406,13.9633884 C8.13137255,13.7728882 8.11932369,13.5659757 8.02518584,13.3875061 C7.97654943,13.2952997 7.90504225,13.207379 7.76263145,13.0872496 C6.65584717,12.0449612 6.09230769,10.9113487 6.09230769,9.32330096 C6.09230769,6.51226943 8.24604208,4.43076923 10.8,4.43076923 C13.3365144,4.43076923 15.5076923,6.54835847 15.5076923,9.32330096 C15.5076923,10.9160591 14.9291101,12.0837512 13.7813934,13.1198588 C13.6793906,13.205123 13.6113355,13.2977775 13.5667027,13.4018509 C13.49103,13.578302 13.4826261,13.7909596 13.5194752,13.9853818 C13.5259304,14.0194401 13.5305067,14.0369585 13.5334293,14.0464228 C13.6186013,14.3270764 13.9847939,14.5489309 15.0197204,14.8980929 L15.0197204,14.8980929 L15.4453292,15.0405821 C15.6200407,15.0993548 15.7600476,15.1476754 15.8966502,15.1968439 C16.8080461,15.5248902 17.5006934,15.8802908 18.042724,16.3715717 C19.2314971,14.8308017 19.9384615,12.8979611 19.9384615,10.8 C19.9384615,5.75296706 15.8470329,1.66153846 10.8,1.66153846 Z" id="Shape"></path>
                        </g>
                    </g>
                </g>
            </g>
        </g>
    </g>
</svg>