<?xml version="1.0" encoding="UTF-8"?>
<svg width="16px" height="24px" viewBox="0 0 16 24" version="1.1" xmlns="http://www.w3.org/2000/svg" xmlns:xlink="http://www.w3.org/1999/xlink">
    <title>Icons/Bankroll</title>
    <g id="Light-Mode" stroke="none" stroke-width="1" fill="none" fill-rule="evenodd">
        <g id="SettingsScreen" transform="translate(-19.000000, -142.000000)" fill="#000000">
            <g id="Bankroll" transform="translate(0.000000, 123.000000)">
                <g id="Icons/Bankroll/Light" transform="translate(19.500000, 19.000000)">
                    <g id="Icons/OrdersIcon">
                        <path d="M8.94023036,0.696565401 C10.3593802,-0.91002971 12.9658991,0.492033878 12.4271101,2.57211946 L10.6714712,9.34006755 L13.577882,10.5099879 C14.8862244,11.0366565 15.2786254,12.7087017 14.343369,13.768175 L5.9169125,23.3034346 C4.49776262,24.9100297 1.89124379,23.5079661 2.43003279,21.4278805 L4.18567164,14.6599325 L1.27926082,13.4900121 C-0.0290815054,12.9643661 -0.421482546,11.2912983 0.51377382,10.231825 L8.94023036,0.696565401 Z M10.3173706,2.28571429 L2.28571429,11.6003996 L6.64362432,13.3976024 L4.53977227,21.7142857 L12.5714286,12.3996004 L8.21351853,10.6023976 L10.3173706,2.28571429 L10.3173706,2.28571429 Z" id="Fill-1170"></path>
                    </g>
                </g>
            </g>
        </g>
    </g>
</svg>