<?xml version="1.0" encoding="UTF-8"?>
<svg width="24px" height="24px" viewBox="0 0 24 24" version="1.1" xmlns="http://www.w3.org/2000/svg" xmlns:xlink="http://www.w3.org/1999/xlink">
    <title>Icons/ContactUs/Light</title>
    <g id="Icons/ContactUs/Light" stroke="none" stroke-width="1" fill="none" fill-rule="evenodd">
        <g id="Icons/OrdersIcon" fill="#000000">
            <path d="M16.1062637,0.950690647 C17.3738513,-0.316896882 19.4305689,-0.316896882 20.6981564,0.950690647 L23.0493094,3.30076112 C24.3168969,4.56943113 24.3168969,6.62614873 23.0493094,7.89373626 L7.89454812,23.0484975 C7.28511022,23.6579354 6.45917573,24 5.59751931,24 L1.08248295,24 C0.484952359,24 0,23.5150476 0,22.9175171 L0,18.4013982 C0,17.5408243 0.342064611,16.7148898 0.951502509,16.1054519 L16.1062637,0.950690647 Z M19.1675255,2.48132153 C18.7442747,2.05915318 18.0601455,2.05915318 17.6368946,2.48132153 L15.6029092,4.51530699 L19.484693,8.39709083 L21.5186785,6.36310537 C21.9408468,5.93985454 21.9408468,5.25572532 21.5186785,4.83247449 L19.1675255,2.48132153 Z M17.9540621,9.92772171 L14.0722783,6.04593787 L2.48213339,17.6360828 C2.2786266,17.8395896 2.16496589,18.1145402 2.16496589,18.4013982 L2.16496589,21.8350341 L5.59751931,21.8350341 C5.88545977,21.8350341 6.16041044,21.7213734 6.36391724,21.5178666 L17.9540621,9.92772171 L17.9540621,9.92772171 Z" id="Fill-1009"></path>
        </g>
    </g>
</svg>