<?xml version="1.0" encoding="UTF-8"?>
<svg width="24px" height="24px" viewBox="0 0 24 24" version="1.1" xmlns="http://www.w3.org/2000/svg" xmlns:xlink="http://www.w3.org/1999/xlink">
    <title>Shape</title>
    <g id="Symbols" stroke="none" stroke-width="1" fill="none" fill-rule="evenodd">
        <g id="Icons/Profile/Light" fill="#010002" fill-rule="nonzero">
            <g id="Icons/OrdersIcon">
                <path d="M12,0 C18.627417,0 24,5.372583 24,12 C24,18.627417 18.627417,24 12,24 C5.372583,24 0,18.627417 0,12 C0,5.372583 5.372583,0 12,0 Z M12,6.76923077 C10.1680448,6.76923077 8.61538462,8.26981619 8.61538462,10.3592233 C8.61538462,11.5750159 9.00912925,12.3670701 9.84675884,13.1584608 C10.1478673,13.4078312 10.3821761,13.6959222 10.549789,14.013688 C10.8850387,14.6492652 10.9232577,15.3055923 10.7933984,15.9054745 C10.7668187,16.0282585 10.7375885,16.1259674 10.7374846,16.1151981 C10.4468166,17.1946987 9.69513108,17.657866 8.04544974,18.221351 L8.04544974,18.221351 L7.49718566,18.4064846 C7.28411387,18.4787801 7.11775091,18.5370472 6.95866969,18.595763 C6.17596531,18.8846536 5.6144197,19.1797517 5.20809473,19.5478034 C7.00776049,21.1681684 9.38877156,22.1538462 12,22.1538462 C14.6102698,22.1538462 16.9904913,21.168892 18.7892784,19.5503697 C18.3877509,19.1919136 17.8294969,18.9074332 17.0377113,18.6224392 C16.8999498,18.5728535 16.7557519,18.5230866 16.5728467,18.4615575 L16.5728467,18.4615575 L16.0984083,18.3027174 C14.3810174,17.7233066 13.6079158,17.2549298 13.2752396,16.1582546 C13.2542269,16.0930314 13.2299581,16.0001292 13.2077768,15.883097 C13.1043097,15.337187 13.127689,14.7455839 13.3774076,14.1632977 C13.5398452,13.7845308 13.7894909,13.4446474 14.101827,13.1844564 C14.9815527,12.3896438 15.3846154,11.5761844 15.3846154,10.3592233 C15.3846154,8.30602527 13.80893,6.76923077 12,6.76923077 Z M12,1.84615385 C6.39218562,1.84615385 1.84615385,6.39218562 1.84615385,12 C1.84615385,14.3307479 2.6314542,16.478079 3.95189702,18.1918355 C4.55262396,17.6379817 5.3227151,17.2316917 6.31941997,16.863815 C6.49619253,16.7985695 6.67680397,16.735312 6.90399879,16.6582245 L6.90399879,16.6582245 L7.44870651,16.4743016 C8.51197013,16.1111205 8.8892739,15.8786366 8.98037112,15.5550545 C8.9772513,15.5634916 8.98181929,15.548222 8.98903784,15.5148761 C9.03485839,15.3032091 9.02147077,15.0733063 8.91687315,14.8750068 C8.8628327,14.7725552 8.78338028,14.6748656 8.62514606,14.5413884 C7.39538575,13.3832902 6.76923077,12.1237208 6.76923077,10.3592233 C6.76923077,7.23585492 9.16226898,4.92307692 12,4.92307692 C14.8183493,4.92307692 17.2307692,7.27595386 17.2307692,10.3592233 C17.2307692,12.1289546 16.5879001,13.4263903 15.3126593,14.5776209 C15.1993229,14.6723589 15.1237061,14.7753083 15.0741141,14.8909454 C14.9900334,15.0870022 14.9806957,15.3232884 15.0216392,15.5393131 C15.0288115,15.5771556 15.0338963,15.5966205 15.0371437,15.6071364 C15.1317792,15.9189738 15.5386599,16.1654788 16.6885782,16.5534366 L16.6885782,16.5534366 L17.1614769,16.7117579 C17.3556008,16.7770609 17.511164,16.8307504 17.6629447,16.8853821 C18.6761015,17.2500561 19.4459667,17.6451533 20.0483535,18.1914353 C21.368243,16.4789069 22.1538462,14.3311972 22.1538462,12 C22.1538462,6.39218562 17.6078144,1.84615385 12,1.84615385 Z" id="Shape"></path>
            </g>
        </g>
    </g>
</svg>