<?xml version="1.0" encoding="UTF-8"?>
<svg width="25px" height="26px" viewBox="0 0 25 26" version="1.1" xmlns="http://www.w3.org/2000/svg" xmlns:xlink="http://www.w3.org/1999/xlink">
    <title>Shape</title>
    <g id="Symbols" stroke="none" stroke-width="1" fill="none" fill-rule="evenodd">
        <g id="Icons/Logout/Light" transform="translate(-1.000000, 1.000000)" fill="#000000" fill-rule="nonzero">
            <path d="M24.9285714,6.54545455 C25.5203051,6.54545455 26,6.97960267 26,7.51515152 L26,7.51515152 L26,20.1858586 C26,22.2728188 24.2651082,24 22.0714286,24 L22.0714286,24 L4.92857143,24 C2.73489179,24 1,22.2728188 1,20.1858586 L1,20.1858586 L1,7.51515152 C1,6.97960267 1.47969491,6.54545455 2.07142857,6.54545455 C2.66316223,6.54545455 3.14285714,6.97960267 3.14285714,7.51515152 L3.14285714,7.51515152 L3.14285714,20.1858586 C3.14285714,21.2407849 3.96633821,22.0606061 4.92857143,22.0606061 L4.92857143,22.0606061 L22.0714286,22.0606061 C23.0336618,22.0606061 23.8571429,21.2407849 23.8571429,20.1858586 L23.8571429,20.1858586 L23.8571429,7.51515152 C23.8571429,6.97960267 24.3368378,6.54545455 24.9285714,6.54545455 Z M14.1048107,0.366920981 L14.1999606,0.450177799 L20.0181425,6.16446351 C20.444169,6.5828824 20.444169,7.26127345 20.0181425,7.67969233 C19.6225464,8.06822415 18.9987151,8.09597642 18.570514,7.76294915 L18.475364,7.67969233 L14.5184805,3.79436364 L14.5194805,14.4935065 C14.5194805,14.8212359 14.1033149,15.0916863 13.5654127,15.1313549 L13.4285714,15.1363636 C12.8724245,15.1363636 12.4134784,14.8911232 12.3461621,14.5741451 L12.3376623,14.4935065 L12.3374805,3.79536364 L8.38177883,7.67969233 C7.98618279,8.06822415 7.36235145,8.09597642 6.93415037,7.76294915 L6.83900039,7.67969233 C6.44340436,7.29116051 6.4151475,6.67846902 6.75422982,6.25791438 L6.83900039,6.16446351 L12.6571822,0.450177799 C13.0527782,0.0616459785 13.6766096,0.0338937056 14.1048107,0.366920981 Z" id="Shape" transform="translate(13.500000, 12.000000) rotate(-90.000000) translate(-13.500000, -12.000000) "></path>
        </g>
    </g>
</svg>