<?xml version="1.0" encoding="UTF-8"?>
<svg width="19px" height="18px" viewBox="0 0 19 18" version="1.1" xmlns="http://www.w3.org/2000/svg" xmlns:xlink="http://www.w3.org/1999/xlink">
    <title>Icons/Close</title>
    <g id="Light-Mode" stroke="none" stroke-width="1" fill="none" fill-rule="evenodd">
        <g id="AddTicketScreen-(With-Photos)" transform="translate(-19.000000, -55.000000)" fill="#FFFFFF" fill-rule="nonzero">
            <g id="Icons/Close" transform="translate(15.000000, 52.000000)">
                <path d="M4.87404532,3.37404532 C5.37277242,2.87531823 6.1813688,2.87531823 6.6800959,3.37404532 L6.6800959,3.37404532 L13.5,10.194 L20.3199041,3.37404532 C20.7853827,2.9085667 21.5207919,2.87753479 22.0222613,3.2809496 L22.1259547,3.37404532 C22.6246818,3.87277242 22.6246818,4.6813688 22.1259547,5.1800959 L22.1259547,5.1800959 L15.306,12 L22.1259547,18.8199041 C22.5914333,19.2853827 22.6224652,20.0207919 22.2190504,20.5222613 L22.1259547,20.6259547 C21.6272276,21.1246818 20.8186312,21.1246818 20.3199041,20.6259547 L20.3199041,20.6259547 L13.5,13.806 L6.6800959,20.6259547 C6.21461727,21.0914333 5.47920807,21.1224652 4.9777387,20.7190504 L4.87404532,20.6259547 C4.37531823,20.1272276 4.37531823,19.3186312 4.87404532,18.8199041 L4.87404532,18.8199041 L11.694,12 L4.87404532,5.1800959 C4.4085667,4.71461727 4.37753479,3.97920807 4.7809496,3.4777387 Z" id="Shape"></path>
            </g>
        </g>
    </g>
</svg>