<?xml version="1.0" encoding="UTF-8"?>
<svg width="31px" height="31px" viewBox="0 0 31 31" version="1.1" xmlns="http://www.w3.org/2000/svg" xmlns:xlink="http://www.w3.org/1999/xlink">
    <title>Icons/Send</title>
    <g id="Light-Mode" stroke="none" stroke-width="1" fill="none" fill-rule="evenodd">
        <g id="AddTicketScreen-(With-Photos)" transform="translate(-309.000000, -744.000000)" fill="#FFFFFF" fill-rule="nonzero">
            <g id="Icons/Send" transform="translate(290.000000, 726.000000)">
                <g transform="translate(19.000000, 18.000000)" id="Path">
                    <path d="M30.3578725,14.4162129 L1.57284721,0.107509644 C1.11450103,-0.116660041 0.567585554,0.0168878563 0.248736042,0.441379387 C-0.0723277014,0.865870917 -0.083398865,1.46922124 0.22216525,1.90563669 L9.68801011,15.4989048 L0.22216525,29.0921729 C-0.083398865,29.5285883 -0.0723277014,30.1343235 0.24652181,30.5564302 C0.461302383,30.844989 0.782366127,31 1.10785834,31 C1.26506886,31 1.42227938,30.9642282 1.57063297,30.8902999 L30.3556583,16.5815967 C30.7497917,16.3860444 31,15.9639376 31,15.4989048 C31,15.0338719 30.7497917,14.6117652 30.3578725,14.4162129 Z"></path>
                </g>
            </g>
        </g>
    </g>
</svg>