<?xml version="1.0" encoding="UTF-8"?>
<svg width="18px" height="17px" viewBox="0 0 18 17" version="1.1" xmlns="http://www.w3.org/2000/svg" xmlns:xlink="http://www.w3.org/1999/xlink">
    <title>Icons/Share</title>
    <g id="Symbols" stroke="none" stroke-width="1" fill="none" fill-rule="evenodd">
        <g id="Commons/Cards/Tickets/Won/Dark" transform="translate(-304.000000, -11.000000)" fill="#ADADAD" fill-rule="nonzero">
            <g id="Icons/Share" transform="translate(304.000000, 10.000000)">
                <path d="M17.2285714,5.62857143 C17.6546197,5.62857143 18,5.93557617 18,6.31428571 L18,6.31428571 L18,15.2742857 C18,16.7500648 16.7508779,17.9714286 15.1714286,17.9714286 L15.1714286,17.9714286 L2.82857143,17.9714286 C1.24912209,17.9714286 7.46069873e-14,16.7500648 7.81597009e-14,15.2742857 L7.81597009e-14,15.2742857 L7.81597009e-14,6.31428571 C7.81597009e-14,5.93557617 0.345380336,5.62857143 0.771428571,5.62857143 C1.19747681,5.62857143 1.54285714,5.93557617 1.54285714,6.31428571 L1.54285714,6.31428571 L1.54285714,15.2742857 C1.54285714,16.0202693 2.13576351,16.6 2.82857143,16.6 L2.82857143,16.6 L15.1714286,16.6 C15.8642365,16.6 16.4571429,16.0202693 16.4571429,15.2742857 L16.4571429,15.2742857 L16.4571429,6.31428571 C16.4571429,5.93557617 16.8025232,5.62857143 17.2285714,5.62857143 Z M9.40753199,1.15125324 L9.4940538,1.2259462 L13.6083395,5.34023191 C13.9096011,5.64149351 13.9096011,6.12993506 13.6083395,6.43119666 C13.3344653,6.70507084 12.905897,6.72996849 12.6038966,6.50588962 L12.5173748,6.43119666 L9.71985714,3.635 L9.72,11.3371429 C9.72,11.5695328 9.43456171,11.7619221 9.06256749,11.7949814 L8.94857143,11.8 C8.56125485,11.8 8.24060596,11.628737 8.18550712,11.4055405 L8.17714286,11.3371429 L8.17685714,3.634 L5.37976809,6.43119666 C5.10589391,6.70507084 4.67732555,6.72996849 4.37532516,6.50588962 L4.28880334,6.43119666 C4.01492916,6.15732248 3.99003151,5.72875412 4.21411038,5.42675373 L4.28880334,5.34023191 L8.40308905,1.2259462 C8.67696323,0.952072019 9.10553159,0.927174366 9.40753199,1.15125324 Z" id="Shape"></path>
            </g>
        </g>
    </g>
</svg>