<?xml version="1.0" encoding="UTF-8"?>
<svg width="18px" height="18px" viewBox="0 0 18 18" version="1.1" xmlns="http://www.w3.org/2000/svg" xmlns:xlink="http://www.w3.org/1999/xlink">
    <title>Icons/Ticket/Light</title>
    <g id="Icons/Ticket/Light" stroke="none" stroke-width="1" fill="none" fill-rule="evenodd">
        <path d="M15.4615385,-1.95399252e-14 C16.8634921,-1.95399252e-14 18,1.13650794 18,2.53846154 L18,11.7692308 C18,13.1711844 16.8634921,14.3076923 15.4615385,14.3076923 L14.307,14.307 L14.3076923,15.5934066 C14.3076923,16.8693664 13.3146973,17.9133999 12.0593331,17.994881 L11.9010989,18 L3.46153846,18 C1.61350872,18 0.103721094,16.5518134 0.00512195215,14.7283865 L-1.0658141e-14,14.5384615 L-1.0658141e-14,6.0989011 C-1.0658141e-14,4.82294125 0.992995033,3.77890783 2.24835923,3.69742669 L2.40659341,3.69230769 L3.692,3.692 L3.69230769,2.53846154 C3.69230769,1.13650794 4.82881564,-1.95399252e-14 6.23076923,-1.95399252e-14 L15.4615385,-1.95399252e-14 Z M3.692,5.076 L2.40659341,5.07692308 C1.87979872,5.07692308 1.44609771,5.47550445 1.39061221,5.98754533 L1.38461538,6.0989011 L1.38461538,14.5384615 C1.38461538,15.6356426 2.23538504,16.5341158 3.3132131,16.6101698 L3.46153846,16.6153846 L11.9010989,16.6153846 C12.4278936,16.6153846 12.8615946,16.2168032 12.9170801,15.7047624 L12.9230769,15.5934066 L12.923,14.307 L6.23076923,14.3076923 C4.82881564,14.3076923 3.69230769,13.1711844 3.69230769,11.7692308 L3.692,5.076 Z M15.4615385,1.38461538 L6.23076923,1.38461538 C5.5935176,1.38461538 5.07692308,1.9012099 5.07692308,2.53846154 L5.07692308,11.7692308 C5.07692308,12.4064824 5.5935176,12.9230769 6.23076923,12.9230769 L15.4615385,12.9230769 C16.0987901,12.9230769 16.6153846,12.4064824 16.6153846,11.7692308 L16.6153846,2.53846154 C16.6153846,1.9012099 16.0987901,1.38461538 15.4615385,1.38461538 Z M13.1538462,8.30769231 C13.5361971,8.30769231 13.8461538,8.61764902 13.8461538,9 C13.8461538,9.3504884 13.5857041,9.6401455 13.2477882,9.68598774 L13.1538462,9.69230769 L8.53846154,9.69230769 C8.15611056,9.69230769 7.84615385,9.38235098 7.84615385,9 C7.84615385,8.6495116 8.10660358,8.3598545 8.44451949,8.31401226 L8.53846154,8.30769231 L13.1538462,8.30769231 Z M13.1538462,4.61538462 C13.5361971,4.61538462 13.8461538,4.92534133 13.8461538,5.30769231 C13.8461538,5.69004329 13.5361971,6 13.1538462,6 L13.1538462,6 L8.53846154,6 C8.15611056,6 7.84615385,5.69004329 7.84615385,5.30769231 C7.84615385,4.92534133 8.15611056,4.61538462 8.53846154,4.61538462 L8.53846154,4.61538462 Z" id="Combined-Shape" fill="#5100FF" fill-rule="nonzero"></path>
    </g>
</svg>